<?xml version="1.0" standalone="no"?>
<!DOCTYPE svg PUBLIC "-//W3C//DTD SVG 20010904//EN"
 "http://www.w3.org/TR/2001/REC-SVG-20010904/DTD/svg10.dtd">
<svg version="1.0" xmlns="http://www.w3.org/2000/svg"
 width="160.000000pt" height="160.000000pt" viewBox="0 0 160.000000 160.000000"
 preserveAspectRatio="xMidYMid meet">
<metadata>
Created by potrace 1.11, written by Peter Selinger 2001-2013
</metadata>
<g transform="translate(0.000000,160.000000) scale(0.100000,-0.100000)"
fill="#000000" stroke="none">
<path d="M1217 1219 c-51 -8 -130 -49 -160 -83 -9 -12 -29 -42 -42 -69 l-25
-47 -38 24 c-133 87 -343 50 -450 -80 -29 -35 -31 -36 -67 -24 -117 39 -271
-34 -330 -155 -28 -57 -30 -172 -4 -233 27 -62 90 -126 153 -153 50 -22 58
-22 521 -23 l471 0 44 23 c50 26 63 40 90 96 24 50 25 108 2 160 l-18 40 42
26 c135 86 165 272 64 399 -59 74 -159 113 -253 99z"/>
</g>
</svg>
